<svg version="1.1" xmlns="http://www.w3.org/2000/svg" width="48px" height="48px" viewBox="0,0,255.99231,255.99231">
  <defs>
    <linearGradient x1="14.572" y1="38.199" x2="43.188" y2="9.583" gradientUnits="userSpaceOnUse" id="color-dark">
      <!-- Dark mode ke liye light colors -->
      <stop offset="0" stop-color="#ffffff"></stop> 
      <stop offset="1" stop-color="#e2e8f0"></stop>
    </linearGradient>
  </defs>
  <g fill="none" fill-rule="nonzero" transform="scale(5.33333,5.33333)">
    <!-- Neeche wala part (Shadow style) -->
    <path d="M24.48,29.316l-9.505,9.505l-13.387,-13.387c-0.784,-0.784 -0.784,-2.054 0,-2.838l6.667,-6.667c0.784,-0.784 2.054,-0.784 2.838,0z" 
          fill="rgba(255,255,255,0.2)"></path>
    <!-- Main part -->
    <path d="M17.797,41.642l-6.667,-6.667c-0.784,-0.784 -0.784,-2.054 0,-2.838l25.777,-25.779c0.784,-0.784 2.054,-0.784 2.838,0l6.667,6.667c0.784,0.784 0.784,2.054 0,2.838l-25.778,25.779c-0.783,0.783 -2.054,0.783 -2.837,0z" 
          fill="url(#color-dark)"></path>
  </g>
</svg>